<?xml version="1.0" encoding="UTF-8"?>
<!DOCTYPE svg PUBLIC "-//W3C//DTD SVG 1.1//EN" "http://www.w3.org/Graphics/SVG/1.1/DTD/svg11.dtd">
<svg xmlns="http://www.w3.org/2000/svg" version="1.1" width="1200px" height="1200px" style="shape-rendering:geometricPrecision; text-rendering:geometricPrecision; image-rendering:optimizeQuality; fill-rule:evenodd; clip-rule:evenodd" xmlns:xlink="http://www.w3.org/1999/xlink">
<!-- canvas -->
<g><path style="opacity:0" fill="#202124" d="M -0.5,-0.5 C 404.167,-0.5 808.833,-0.5 1213.5,-0.5C 1213.5,402.833 1213.5,806.167 1213.5,1209.5C 808.833,1209.5 404.167,1209.5 -0.5,1209.5C -0.5,806.167 -0.5,402.833 -0.5,-0.5 Z"/></g>
<!-- icon -->
<g><path style="opacity:1" fill="#38a29d" d="M 356.5,413.5 C 357.543,416.056 359.21,418.223 361.5,420C 381.333,438.5 401.167,457 421,475.5C 434.155,450.137 454.655,433.637 482.5,426C 494.569,422.419 506.902,420.419 519.5,420C 536.374,419.415 553.207,419.915 570,421.5C 599.228,422.657 626.395,415.823 651.5,401C 681.114,378.728 695.114,348.894 693.5,311.5C 693.333,306.167 693.167,300.833 693,295.5C 691.937,286.386 690.603,277.386 689,268.5C 707.424,259.705 725.924,251.038 744.5,242.5C 745.183,242.863 745.85,243.196 746.5,243.5C 775.513,319.293 760.513,384.793 701.5,440C 671.08,463.082 645.58,490.582 625,522.5C 599.03,567.768 586.53,616.601 587.5,669C 588.463,686.525 589.463,704.025 590.5,721.5C 485.722,715.696 400.222,672.362 334,591.5C 269.801,506.208 247.468,410.875 267,305.5C 292.257,199.427 352.757,120.594 448.5,69C 533.679,27.0887 621.679,20.0887 712.5,48C 724.789,52.1511 736.789,56.9845 748.5,62.5C 742.916,73.2509 734.582,81.0842 723.5,86C 707.019,92.7362 689.853,95.5696 672,94.5C 647.971,93.3763 623.971,91.7096 600,89.5C 598.167,89.8333 596.333,90.1667 594.5,90.5C 600.063,109.266 600.897,128.266 597,147.5C 595.377,151.71 593.377,155.71 591,159.5C 512.768,242.976 434.768,326.643 357,410.5C 356.517,411.448 356.351,412.448 356.5,413.5 Z"/></g>
<g><path style="opacity:1" fill="#7bd2cd" d="M 746.5,243.5 C 745.85,243.196 745.183,242.863 744.5,242.5C 725.924,251.038 707.424,259.705 689,268.5C 690.603,277.386 691.937,286.386 693,295.5C 693.167,300.833 693.333,306.167 693.5,311.5C 695.114,348.894 681.114,378.728 651.5,401C 626.395,415.823 599.228,422.657 570,421.5C 553.207,419.915 536.374,419.415 519.5,420C 506.902,420.419 494.569,422.419 482.5,426C 454.655,433.637 434.155,450.137 421,475.5C 401.167,457 381.333,438.5 361.5,420C 359.21,418.223 357.543,416.056 356.5,413.5C 375.838,429.759 396.838,431.926 419.5,420C 436.333,408.5 450.5,394.333 462,377.5C 479.977,349.753 501.144,324.586 525.5,302C 537.281,291.274 550.948,283.941 566.5,280C 572.36,279.816 578.026,279.649 583.5,279.5C 592.793,288.122 603.793,290.956 616.5,288C 635.845,280.494 644.345,266.328 642,245.5C 639.621,236.722 634.788,229.722 627.5,224.5C 625.217,205.569 632.883,192.403 650.5,185C 685.532,179.933 713.365,191.767 734,220.5C 738.7,227.901 742.866,235.568 746.5,243.5 Z"/></g>
<g><path style="opacity:1" fill="#38a29d" d="M 627.5,224.5 C 634.788,229.722 639.621,236.722 642,245.5C 644.345,266.328 635.845,280.494 616.5,288C 603.793,290.956 592.793,288.122 583.5,279.5C 574.005,270.139 570.505,258.806 573,245.5C 578.932,226.619 591.765,217.785 611.5,219C 617.171,219.946 622.505,221.779 627.5,224.5 Z"/></g>
<g><path style="opacity:1" fill="#42beb8" d="M 796.5,88.5 C 832.001,112.499 862.501,141.832 888,176.5C 888.749,177.635 888.583,178.635 887.5,179.5C 860.471,195.436 834.471,193.936 809.5,175C 784.706,149.28 780.373,120.447 796.5,88.5 Z"/></g>
<g><path style="opacity:1" fill="#5fc8c3" d="M 915.5,223.5 C 927.715,265.182 939.715,307.015 951.5,349C 914.794,349.967 891.294,332.8 881,297.5C 876.097,264.982 887.597,240.315 915.5,223.5 Z"/></g>
<g><path style="opacity:1" fill="#85d5d1" d="M 935.5,401.5 C 940.5,401.5 945.5,401.5 950.5,401.5C 950.5,402.833 950.5,404.167 950.5,405.5C 947.658,442.201 939.158,477.534 925,511.5C 923.099,516.973 920.432,521.973 917,526.5C 897.155,516.971 885.155,501.305 881,479.5C 876.8,454.434 883.966,433.267 902.5,416C 912.047,407.894 923.047,403.061 935.5,401.5 Z"/></g>
<g><path style="opacity:1" fill="#abe2df" d="M 844.5,565.5 C 860.645,563.955 875.645,567.288 889.5,575.5C 865.103,610.397 835.27,639.731 800,663.5C 784.212,630.495 790.046,601.995 817.5,578C 825.82,572.17 834.82,568.004 844.5,565.5 Z"/></g>
<!-- main title -->
<g><path style="opacity:1" fill="#32928d" d="M 104.5,812.5 C 127.502,812.333 150.502,812.5 173.5,813C 176.196,813.69 178.363,815.19 180,817.5C 181.489,858.415 181.989,899.415 181.5,940.5C 173.833,940.5 166.167,940.5 158.5,940.5C 158.5,930.167 158.5,919.833 158.5,909.5C 131.5,909.5 104.5,909.5 77.5,909.5C 77.5,919.833 77.5,930.167 77.5,940.5C 69.5,940.5 61.5,940.5 53.5,940.5C 53.3334,916.164 53.5,891.831 54,867.5C 58.5454,837.791 75.3788,819.458 104.5,812.5 Z"/></g>
<g><path style="opacity:1" fill="#202124" d="M 109.5,836.5 C 125.833,836.5 142.167,836.5 158.5,836.5C 158.5,852.833 158.5,869.167 158.5,885.5C 131.5,885.5 104.5,885.5 77.5,885.5C 74.4526,859.874 85.1193,843.541 109.5,836.5 Z"/></g>
<g><path style="opacity:1" fill="#32928d" d="M 205.5,865.5 C 233.167,865.5 260.833,865.5 288.5,865.5C 288.5,872.5 288.5,879.5 288.5,886.5C 260.833,886.5 233.167,886.5 205.5,886.5C 205.5,879.5 205.5,872.5 205.5,865.5 Z"/></g>
<g><path style="opacity:1" fill="#32928d" d="M 334.5,843.5 C 351.837,843.333 369.17,843.5 386.5,844C 402.226,846.726 411.726,855.892 415,871.5C 415.667,898.833 415.667,926.167 415,953.5C 413.035,967.297 405.535,976.463 392.5,981C 375.205,982.396 357.871,982.896 340.5,982.5C 340.5,974.5 340.5,966.5 340.5,958.5C 355.504,958.667 370.504,958.5 385.5,958C 388.333,957.167 390.167,955.333 391,952.5C 391.667,925.833 391.667,899.167 391,872.5C 389.5,871 388,869.5 386.5,868C 369.833,867.333 353.167,867.333 336.5,868C 335,869.5 333.5,871 332,872.5C 331.037,886.261 331.37,899.928 333,913.5C 333.903,914.701 335.069,915.535 336.5,916C 351.83,916.5 367.163,916.667 382.5,916.5C 382.5,924.5 382.5,932.5 382.5,940.5C 364.786,940.93 347.119,940.43 329.5,939C 317.279,934.778 310.113,926.278 308,913.5C 307.333,899.5 307.333,885.5 308,871.5C 310.592,856.079 319.425,846.745 334.5,843.5 Z"/></g>
<g><path style="opacity:1" fill="#32928d" d="M 460.5,843.5 C 477.837,843.333 495.17,843.5 512.5,844C 534.699,849.88 543.199,864.046 538,886.5C 533.624,899.213 524.791,906.38 511.5,908C 496.17,908.5 480.837,908.667 465.5,908.5C 465.5,900.833 465.5,893.167 465.5,885.5C 480.837,885.667 496.17,885.5 511.5,885C 516.275,881.345 517.775,876.512 516,870.5C 515.167,869.667 514.333,868.833 513.5,868C 496.233,866.376 478.9,866.042 461.5,867C 460,868.5 458.5,870 457,871.5C 456.333,884.833 456.333,898.167 457,911.5C 457.273,913.329 458.107,914.829 459.5,916C 475.404,917.47 491.404,917.97 507.5,917.5C 507.5,925.167 507.5,932.833 507.5,940.5C 444.832,952.666 420.665,927.666 435,865.5C 439.417,853.238 447.917,845.905 460.5,843.5 Z"/></g>
<g><path style="opacity:1" fill="#32928d" d="M 587.5,867.5 C 587.5,859.833 587.5,852.167 587.5,844.5C 602.833,844.5 618.167,844.5 633.5,844.5C 650.288,846.955 659.621,856.622 661.5,873.5C 661.743,887.525 661.409,901.525 660.5,915.5C 657.292,928.874 648.959,937.041 635.5,940C 617.167,940.667 598.833,940.667 580.5,940C 567.527,937.028 559.027,929.194 555,916.5C 554.5,878.501 554.333,840.501 554.5,802.5C 562.42,802.185 570.253,802.518 578,803.5C 578.333,839.5 578.667,875.5 579,911.5C 579.465,912.931 580.299,914.097 581.5,915C 590.237,916.14 599.07,916.64 608,916.5C 616.93,916.64 625.763,916.14 634.5,915C 635.893,913.829 636.727,912.329 637,910.5C 637.962,897.072 637.629,883.739 636,870.5C 634.745,869.789 633.579,868.956 632.5,868C 617.504,867.5 602.504,867.333 587.5,867.5 Z"/></g>
<g><path style="opacity:1" fill="#32928d" d="M 704.5,917.5 C 720.328,918.661 736.328,918.828 752.5,918C 753.056,917.617 753.389,917.117 753.5,916.5C 755.173,915.657 756.34,914.324 757,912.5C 757.667,898.833 757.667,885.167 757,871.5C 756.535,870.069 755.701,868.903 754.5,868C 735.568,866.538 716.568,866.038 697.5,866.5C 697.5,858.833 697.5,851.167 697.5,843.5C 716.17,843.333 734.836,843.5 753.5,844C 767.497,846.667 776.331,854.833 780,868.5C 780.927,885.545 780.593,902.545 779,919.5C 775.88,928.918 769.713,935.418 760.5,939C 740.538,940.592 720.538,940.925 700.5,940C 679.334,933.516 671.167,919.35 676,897.5C 679.68,886.488 687.18,879.654 698.5,877C 715.163,876.5 731.83,876.333 748.5,876.5C 748.5,883.833 748.5,891.167 748.5,898.5C 733.496,898.333 718.496,898.5 703.5,899C 697.458,902.748 695.958,907.915 699,914.5C 700.488,916.16 702.321,917.16 704.5,917.5 Z"/></g>
<g><path style="opacity:1" fill="#32928d" d="M 800.5,802.5 C 808.42,802.185 816.253,802.518 824,803.5C 824.5,849.165 824.667,894.832 824.5,940.5C 816.5,940.5 808.5,940.5 800.5,940.5C 800.5,894.5 800.5,848.5 800.5,802.5 Z"/></g>
<g><path style="opacity:1" fill="#32928d" d="M 879.5,844.5 C 892.254,845.962 901.088,852.628 906,864.5C 907.442,889.795 907.942,915.129 907.5,940.5C 899.5,940.5 891.5,940.5 883.5,940.5C 883.98,917.076 883.48,893.743 882,870.5C 881.097,869.299 879.931,868.465 878.5,868C 863.504,867.5 848.504,867.333 833.5,867.5C 833.5,859.833 833.5,852.167 833.5,844.5C 848.833,844.5 864.167,844.5 879.5,844.5 Z"/></g>
<g><path style="opacity:1" fill="#32928d" d="M 927.5,843.5 C 935.5,843.5 943.5,843.5 951.5,843.5C 951.02,866.924 951.52,890.257 953,913.5C 953.903,914.701 955.069,915.535 956.5,916C 971.83,916.5 987.163,916.667 1002.5,916.5C 1002.5,924.5 1002.5,932.5 1002.5,940.5C 984.458,940.916 966.458,940.416 948.5,939C 936.854,934.355 930.021,925.855 928,913.5C 927.5,890.169 927.333,866.836 927.5,843.5 Z"/></g>
<g><path style="opacity:1" fill="#32928d" d="M 1010.5,843.5 C 1018.83,843.5 1027.17,843.5 1035.5,843.5C 1035.67,880.168 1035.5,916.835 1035,953.5C 1033,967.167 1025.5,976.333 1012.5,981C 995.205,982.396 977.871,982.896 960.5,982.5C 960.5,974.5 960.5,966.5 960.5,958.5C 975.504,958.667 990.504,958.5 1005.5,958C 1007.29,957.215 1008.79,956.049 1010,954.5C 1010.5,917.502 1010.67,880.502 1010.5,843.5 Z"/></g>
<g><path style="opacity:1" fill="#32928d" d="M 1081.5,843.5 C 1099.17,843.333 1116.84,843.5 1134.5,844C 1148.44,846.607 1157.27,854.774 1161,868.5C 1161.67,884.167 1161.67,899.833 1161,915.5C 1157.18,929.654 1148.01,937.821 1133.5,940C 1116.17,940.667 1098.83,940.667 1081.5,940C 1066.69,937.194 1057.86,928.36 1055,913.5C 1054.08,897.121 1054.41,880.788 1056,864.5C 1060.99,853.107 1069.49,846.107 1081.5,843.5 Z"/></g>
<g><path style="opacity:1" fill="#202124" d="M 1083.5,867.5 C 1100.59,867.029 1117.59,867.529 1134.5,869C 1135.33,869.833 1136.17,870.667 1137,871.5C 1137.96,885.594 1137.63,899.594 1136,913.5C 1135.17,914.333 1134.33,915.167 1133.5,916C 1116.5,916.667 1099.5,916.667 1082.5,916C 1080.95,914.786 1079.78,913.286 1079,911.5C 1078.33,898.5 1078.33,885.5 1079,872.5C 1080.02,870.313 1081.52,868.646 1083.5,867.5 Z"/></g>
<!-- subtitle -->
<g><path style="opacity:1" fill="#32928d" d="M 177.5,1092.5 C 181.167,1092.5 184.833,1092.5 188.5,1092.5C 188.5,1095.83 188.5,1099.17 188.5,1102.5C 191.833,1102.5 195.167,1102.5 198.5,1102.5C 198.5,1104.83 198.5,1107.17 198.5,1109.5C 195.167,1109.5 191.833,1109.5 188.5,1109.5C 188.334,1116.51 188.5,1123.51 189,1130.5C 189.5,1131.67 190.333,1132.5 191.5,1133C 193.81,1133.5 196.143,1133.66 198.5,1133.5C 198.5,1135.83 198.5,1138.17 198.5,1140.5C 194.486,1140.67 190.486,1140.5 186.5,1140C 183.452,1139.39 180.952,1137.89 179,1135.5C 177.59,1126.92 177.09,1118.25 177.5,1109.5C 175.167,1109.5 172.833,1109.5 170.5,1109.5C 170.5,1107.17 170.5,1104.83 170.5,1102.5C 172.833,1102.5 175.167,1102.5 177.5,1102.5C 177.5,1099.17 177.5,1095.83 177.5,1092.5 Z"/></g>
<g><path style="opacity:1" fill="#32928d" d="M 220.5,1086.5 C 224.167,1086.5 227.833,1086.5 231.5,1086.5C 231.334,1093.17 231.5,1099.84 232,1106.5C 232.5,1104.67 233.667,1103.5 235.5,1103C 241.253,1102.15 246.92,1102.48 252.5,1104C 253.701,1104.9 254.535,1106.07 255,1107.5C 255.5,1118.16 255.667,1128.83 255.5,1139.5C 251.833,1139.5 248.167,1139.5 244.5,1139.5C 244.666,1129.83 244.5,1120.16 244,1110.5C 242.352,1108.97 240.352,1108.3 238,1108.5C 235.648,1108.3 233.648,1108.97 232,1110.5C 231.5,1120.16 231.334,1129.83 231.5,1139.5C 227.833,1139.5 224.167,1139.5 220.5,1139.5C 220.5,1121.83 220.5,1104.17 220.5,1086.5 Z"/></g>
<g><path style="opacity:1" fill="#32928d" d="M 288.5,1102.5 C 294.176,1102.33 299.843,1102.5 305.5,1103C 309.499,1103.67 312.332,1105.83 314,1109.5C 314.499,1114.49 314.666,1119.49 314.5,1124.5C 306.5,1124.5 298.5,1124.5 290.5,1124.5C 290.245,1128.49 291.911,1131.33 295.5,1133C 301.516,1133.5 307.516,1133.33 313.5,1132.5C 313.5,1134.83 313.5,1137.17 313.5,1139.5C 306.185,1140.42 298.852,1140.58 291.5,1140C 286.212,1139.03 282.378,1136.2 280,1131.5C 279.333,1124.5 279.333,1117.5 280,1110.5C 281.73,1106.57 284.564,1103.9 288.5,1102.5 Z"/></g>
<g><path style="opacity:1" fill="#202124" d="M 303.5,1111.5 C 303.5,1113.5 303.5,1115.5 303.5,1117.5C 299.167,1117.5 294.833,1117.5 290.5,1117.5C 289.492,1109.82 292.826,1106.98 300.5,1109C 301.942,1109.38 302.942,1110.21 303.5,1111.5 Z"/></g>
<g><path style="opacity:1" fill="#32928d" d="M 389.5,1102.5 C 391.167,1102.5 392.833,1102.5 394.5,1102.5C 394.5,1105.17 394.5,1107.83 394.5,1110.5C 392.901,1110.23 391.568,1110.57 390.5,1111.5C 387.348,1110.96 384.848,1111.96 383,1114.5C 382.5,1122.83 382.334,1131.16 382.5,1139.5C 378.833,1139.5 375.167,1139.5 371.5,1139.5C 371.5,1127.17 371.5,1114.83 371.5,1102.5C 374.833,1102.5 378.167,1102.5 381.5,1102.5C 381.34,1104.2 381.506,1105.87 382,1107.5C 383.857,1104.8 386.357,1103.13 389.5,1102.5 Z"/></g>
<g><path style="opacity:1" fill="#32928d" d="M 423.5,1102.5 C 429.509,1102.33 435.509,1102.5 441.5,1103C 445.896,1103.73 448.73,1106.23 450,1110.5C 450.499,1115.15 450.666,1119.82 450.5,1124.5C 442.5,1124.5 434.5,1124.5 426.5,1124.5C 425.616,1128.49 426.949,1131.32 430.5,1133C 436.962,1133.85 443.295,1133.35 449.5,1131.5C 449.663,1133.86 449.497,1136.19 449,1138.5C 438.982,1141.55 429.148,1141.05 419.5,1137C 418.667,1136.17 417.833,1135.33 417,1134.5C 415.428,1126.24 415.095,1117.91 416,1109.5C 417.742,1106.25 420.242,1103.92 423.5,1102.5 Z"/></g>
<g><path style="opacity:1" fill="#202124" d="M 429.5,1108.5 C 437.179,1106.97 440.513,1109.97 439.5,1117.5C 435.167,1117.5 430.833,1117.5 426.5,1117.5C 426.337,1115.14 426.503,1112.81 427,1110.5C 427.995,1109.93 428.828,1109.27 429.5,1108.5 Z"/></g>
<g><path style="opacity:1" fill="#32928d" d="M 479.5,1102.5 C 487.5,1102.5 495.5,1102.5 503.5,1102.5C 503.5,1104.83 503.5,1107.17 503.5,1109.5C 497.495,1109 491.495,1108.83 485.5,1109C 482.946,1111.4 482.946,1113.73 485.5,1116C 489.833,1116.33 494.167,1116.67 498.5,1117C 504.192,1118.21 506.525,1121.71 505.5,1127.5C 505.94,1135.23 502.274,1139.4 494.5,1140C 487.482,1140.57 480.482,1140.4 473.5,1139.5C 473.5,1137.17 473.5,1134.83 473.5,1132.5C 480.525,1133.5 487.525,1133.5 494.5,1132.5C 494.768,1129.88 494.435,1127.38 493.5,1125C 488.833,1124.67 484.167,1124.33 479.5,1124C 477.413,1123.21 475.579,1122.04 474,1120.5C 472.543,1116.26 472.209,1111.93 473,1107.5C 474.805,1105.17 476.972,1103.51 479.5,1102.5 Z"/></g>
<g><path style="opacity:1" fill="#32928d" d="M 532.5,1092.5 C 536.167,1092.5 539.833,1092.5 543.5,1092.5C 543.5,1095.83 543.5,1099.17 543.5,1102.5C 546.833,1102.5 550.167,1102.5 553.5,1102.5C 553.5,1104.83 553.5,1107.17 553.5,1109.5C 550.167,1109.5 546.833,1109.5 543.5,1109.5C 543.334,1116.51 543.5,1123.51 544,1130.5C 544.5,1131.67 545.333,1132.5 546.5,1133C 548.81,1133.5 551.143,1133.66 553.5,1133.5C 553.5,1135.83 553.5,1138.17 553.5,1140.5C 549.486,1140.67 545.486,1140.5 541.5,1140C 538.452,1139.39 535.952,1137.89 534,1135.5C 532.59,1126.92 532.09,1118.25 532.5,1109.5C 530.167,1109.5 527.833,1109.5 525.5,1109.5C 525.5,1107.17 525.5,1104.83 525.5,1102.5C 527.833,1102.5 530.167,1102.5 532.5,1102.5C 532.5,1099.17 532.5,1095.83 532.5,1092.5 Z"/></g>
<g><path style="opacity:1" fill="#32928d" d="M 608.5,1102.5 C 612.167,1102.5 615.833,1102.5 619.5,1102.5C 619.443,1106.13 620.443,1106.3 622.5,1103C 628.585,1102.14 634.585,1102.47 640.5,1104C 641.211,1105.25 642.044,1106.42 643,1107.5C 643.5,1118.16 643.667,1128.83 643.5,1139.5C 639.833,1139.5 636.167,1139.5 632.5,1139.5C 632.666,1129.83 632.5,1120.16 632,1110.5C 630.352,1108.97 628.352,1108.3 626,1108.5C 623.648,1108.3 621.648,1108.97 620,1110.5C 619.5,1120.16 619.334,1129.83 619.5,1139.5C 615.833,1139.5 612.167,1139.5 608.5,1139.5C 608.5,1127.17 608.5,1114.83 608.5,1102.5 Z"/></g>
<g><path style="opacity:1" fill="#32928d" d="M 675.5,1102.5 C 681.842,1102.33 688.175,1102.5 694.5,1103C 699.438,1103.27 702.604,1105.77 704,1110.5C 709.106,1137.39 698.606,1146.56 672.5,1138C 670.383,1136.27 668.883,1134.1 668,1131.5C 667.333,1124.5 667.333,1117.5 668,1110.5C 669.353,1106.65 671.853,1103.98 675.5,1102.5 Z"/></g>
<g><path style="opacity:1" fill="#202124" d="M 681.5,1108.5 C 684.518,1108.34 687.518,1108.5 690.5,1109C 691.333,1109.83 692.167,1110.67 693,1111.5C 693.667,1117.83 693.667,1124.17 693,1130.5C 692.5,1131.67 691.667,1132.5 690.5,1133C 687.5,1133.67 684.5,1133.67 681.5,1133C 680.333,1132.5 679.5,1131.67 679,1130.5C 678.333,1124.17 678.333,1117.83 679,1111.5C 680.045,1110.63 680.878,1109.63 681.5,1108.5 Z"/></g>
<g><path style="opacity:1" fill="#32928d" d="M 724.5,1102.5 C 728.437,1102.21 732.27,1102.54 736,1103.5C 738.01,1111.21 740.177,1118.87 742.5,1126.5C 745.028,1118.91 747.362,1111.25 749.5,1103.5C 753.122,1102.34 756.789,1102.17 760.5,1103C 763.382,1111.36 765.882,1119.86 768,1128.5C 770.484,1119.9 772.65,1111.23 774.5,1102.5C 778.226,1102.18 781.893,1102.51 785.5,1103.5C 781.5,1115.17 777.5,1126.83 773.5,1138.5C 769.833,1139.83 766.167,1139.83 762.5,1138.5C 760.099,1130.8 757.599,1123.13 755,1115.5C 752.207,1123.34 750.04,1131.34 748.5,1139.5C 744.445,1139.82 740.445,1139.49 736.5,1138.5C 732.295,1126.55 728.295,1114.55 724.5,1102.5 Z"/></g>
<g><path style="opacity:1" fill="#32928d" d="M 806.5,1086.5 C 810.167,1086.5 813.833,1086.5 817.5,1086.5C 817.334,1093.17 817.5,1099.84 818,1106.5C 818.5,1104.67 819.667,1103.5 821.5,1103C 827.253,1102.15 832.92,1102.48 838.5,1104C 839.701,1104.9 840.535,1106.07 841,1107.5C 841.5,1118.16 841.667,1128.83 841.5,1139.5C 837.833,1139.5 834.167,1139.5 830.5,1139.5C 830.666,1129.83 830.5,1120.16 830,1110.5C 828.352,1108.97 826.352,1108.3 824,1108.5C 821.648,1108.3 819.648,1108.97 818,1110.5C 817.5,1120.16 817.334,1129.83 817.5,1139.5C 813.833,1139.5 810.167,1139.5 806.5,1139.5C 806.5,1121.83 806.5,1104.17 806.5,1086.5 Z"/></g>
<g><path style="opacity:1" fill="#32928d" d="M 900.5,1112.5 C 900.5,1116.17 900.5,1119.83 900.5,1123.5C 892.648,1123.17 884.982,1123.51 877.5,1124.5C 876.616,1128.49 877.949,1131.32 881.5,1133C 887.516,1133.5 893.516,1133.33 899.5,1132.5C 899.5,1134.83 899.5,1137.17 899.5,1139.5C 892.185,1140.42 884.852,1140.58 877.5,1140C 867.652,1137.65 863.652,1131.48 865.5,1121.5C 863.658,1112.81 866.658,1106.64 874.5,1103C 881.567,1102.16 888.567,1102.49 895.5,1104C 898.596,1106.03 900.262,1108.86 900.5,1112.5 Z"/></g>
<g><path style="opacity:1" fill="#202124" d="M 879.5,1108.5 C 887.539,1106.65 891.206,1109.65 890.5,1117.5C 885.833,1117.5 881.167,1117.5 876.5,1117.5C 875.924,1113.89 876.924,1110.89 879.5,1108.5 Z"/></g>
<g><path style="opacity:1" fill="#32928d" d="M 924.5,1103.5 C 927.833,1103.5 931.167,1103.5 934.5,1103.5C 934.138,1108.36 934.804,1109.02 936.5,1105.5C 939.901,1102.47 943.901,1101.14 948.5,1101.5C 948.5,1104.83 948.5,1108.17 948.5,1111.5C 945.15,1111.33 941.817,1111.5 938.5,1112C 937.667,1112.83 936.833,1113.67 936,1114.5C 935.5,1122.83 935.334,1131.16 935.5,1139.5C 931.833,1139.5 928.167,1139.5 924.5,1139.5C 924.5,1127.5 924.5,1115.5 924.5,1103.5 Z"/></g>
<g><path style="opacity:1" fill="#32928d" d="M 1003.5,1112.5 C 1003.5,1116.17 1003.5,1119.83 1003.5,1123.5C 995.648,1123.17 987.982,1123.51 980.5,1124.5C 979.616,1128.49 980.949,1131.32 984.5,1133C 990.516,1133.5 996.516,1133.33 1002.5,1132.5C 1002.5,1134.83 1002.5,1137.17 1002.5,1139.5C 995.185,1140.42 987.852,1140.58 980.5,1140C 970.652,1137.65 966.652,1131.48 968.5,1121.5C 966.658,1112.81 969.658,1106.64 977.5,1103C 984.567,1102.16 991.567,1102.49 998.5,1104C 1001.6,1106.03 1003.26,1108.86 1003.5,1112.5 Z"/></g>
<g><path style="opacity:1" fill="#202124" d="M 982.5,1108.5 C 990.539,1106.65 994.206,1109.65 993.5,1117.5C 988.833,1117.5 984.167,1117.5 979.5,1117.5C 978.924,1113.89 979.924,1110.89 982.5,1108.5 Z"/></g>
</svg>
