<?xml version="1.0" encoding="UTF-8"?>
<!DOCTYPE svg PUBLIC "-//W3C//DTD SVG 1.1//EN" "http://www.w3.org/Graphics/SVG/1.1/DTD/svg11.dtd">
<svg xmlns="http://www.w3.org/2000/svg" version="1.1" width="701px" height="701px" style="shape-rendering:geometricPrecision; text-rendering:geometricPrecision; image-rendering:optimizeQuality; fill-rule:evenodd; clip-rule:evenodd" xmlns:xlink="http://www.w3.org/1999/xlink">
<!-- canvas -->
<g><path style="opacity:0" fill="#fefefe" d="M -0.5,-0.5 C 234.833,-0.5 470.167,-0.5 705.5,-0.5C 705.5,234.167 705.5,468.833 705.5,703.5C 470.167,703.5 234.833,703.5 -0.5,703.5C -0.5,468.833 -0.5,234.167 -0.5,-0.5 Z"/></g>
<!-- icon -->
<g><path style="opacity:1" fill="#2e5e85" d="M 102.5,385.5 C 103.543,388.056 105.21,390.223 107.5,392C 127.333,410.5 147.167,429 167,447.5C 180.155,422.137 200.655,405.637 228.5,398C 240.569,394.419 252.902,392.419 265.5,392C 282.374,391.415 299.207,391.915 316,393.5C 345.228,394.657 372.395,387.823 397.5,373C 427.114,350.728 441.114,320.894 439.5,283.5C 439.333,278.167 439.167,272.833 439,267.5C 437.937,258.386 436.603,249.386 435,240.5C 453.424,231.705 471.924,223.038 490.5,214.5C 491.183,214.863 491.85,215.196 492.5,215.5C 521.513,291.293 506.513,356.793 447.5,412C 417.08,435.082 391.58,462.582 371,494.5C 345.03,539.768 332.53,588.601 333.5,641C 334.463,658.525 335.463,676.025 336.5,693.5C 231.722,687.696 146.222,644.362 80,563.5C 15.8013,478.208 -6.53199,382.875 13,277.5C 38.257,171.427 98.757,92.5936 194.5,41C 279.679,-0.911317 367.679,-7.91132 458.5,20C 470.789,24.1511 482.789,28.9845 494.5,34.5C 488.916,45.2509 480.582,53.0842 469.5,58C 453.019,64.7362 435.853,67.5696 418,66.5C 393.971,65.3763 369.971,63.7096 346,61.5C 344.167,61.8333 342.333,62.1667 340.5,62.5C 346.063,81.2661 346.897,100.266 343,119.5C 341.377,123.71 339.377,127.71 337,131.5C 258.768,214.976 180.768,298.643 103,382.5C 102.517,383.448 102.351,384.448 102.5,385.5 Z"/></g>
<g><path style="opacity:1" fill="#a1c2df" d="M 492.5,215.5 C 491.85,215.196 491.183,214.863 490.5,214.5C 471.924,223.038 453.424,231.705 435,240.5C 436.603,249.386 437.937,258.386 439,267.5C 439.167,272.833 439.333,278.167 439.5,283.5C 441.114,320.894 427.114,350.728 397.5,373C 372.395,387.823 345.228,394.657 316,393.5C 299.207,391.915 282.374,391.415 265.5,392C 252.902,392.419 240.569,394.419 228.5,398C 200.655,405.637 180.155,422.137 167,447.5C 147.167,429 127.333,410.5 107.5,392C 105.21,390.223 103.543,388.056 102.5,385.5C 121.838,401.759 142.838,403.926 165.5,392C 182.333,380.5 196.5,366.333 208,349.5C 225.977,321.753 247.144,296.586 271.5,274C 283.281,263.274 296.948,255.941 312.5,252C 318.36,251.816 324.026,251.649 329.5,251.5C 338.793,260.122 349.793,262.956 362.5,260C 381.845,252.494 390.345,238.328 388,217.5C 385.621,208.722 380.788,201.722 373.5,196.5C 371.217,177.569 378.883,164.403 396.5,157C 431.532,151.933 459.365,163.767 480,192.5C 484.7,199.901 488.866,207.568 492.5,215.5 Z"/></g>
<g><path style="opacity:1" fill="#2e5e85" d="M 373.5,196.5 C 380.788,201.722 385.621,208.722 388,217.5C 390.345,238.328 381.845,252.494 362.5,260C 349.793,262.956 338.793,260.122 329.5,251.5C 320.005,242.139 316.505,230.806 319,217.5C 324.932,198.619 337.765,189.785 357.5,191C 363.171,191.946 368.505,193.779 373.5,196.5 Z"/></g>
<g><path style="opacity:1" fill="#3b79ab" d="M 542.5,60.5 C 578.001,84.4989 608.501,113.832 634,148.5C 634.749,149.635 634.583,150.635 633.5,151.5C 606.471,167.436 580.471,165.936 555.5,147C 530.706,121.28 526.373,92.447 542.5,60.5 Z"/></g>
<g><path style="opacity:1" fill="#5592c4" d="M 661.5,195.5 C 673.715,237.182 685.715,279.015 697.5,321C 660.794,321.967 637.294,304.8 627,269.5C 622.097,236.982 633.597,212.315 661.5,195.5 Z"/></g>
<g><path style="opacity:1" fill="#7baad1" d="M 681.5,373.5 C 686.5,373.5 691.5,373.5 696.5,373.5C 696.5,374.833 696.5,376.167 696.5,377.5C 693.658,414.201 685.158,449.534 671,483.5C 669.099,488.973 666.432,493.973 663,498.5C 635.494,483.499 623.16,460.166 626,428.5C 632.446,397.887 650.946,379.554 681.5,373.5 Z"/></g>
<g><path style="opacity:1" fill="#a1c2de" d="M 590.5,537.5 C 606.645,535.955 621.645,539.288 635.5,547.5C 611.103,582.397 581.27,611.731 546,635.5C 530.216,602.481 536.05,573.981 563.5,550C 571.82,544.17 580.82,540.004 590.5,537.5 Z"/></g>
</svg>
