<?xml version="1.0" standalone="no"?>
<!DOCTYPE svg PUBLIC "-//W3C//DTD SVG 20010904//EN"
 "http://www.w3.org/TR/2001/REC-SVG-20010904/DTD/svg10.dtd">
<svg version="1.0" xmlns="http://www.w3.org/2000/svg"
 width="700.000000pt" height="700.000000pt" viewBox="0 0 700.000000 700.000000"
 preserveAspectRatio="xMidYMid meet">
<metadata>
Created by potrace 1.14, written by Peter Selinger 2001-2017
</metadata>
<g transform="translate(0.000000,700.000000) scale(0.100000,-0.100000)"
fill="#000000" stroke="none">
<path d="M3271 6959 c-477 -34 -1022 -194 -1406 -411 -645 -366 -1125 -864
-1438 -1493 -165 -332 -281 -690 -326 -1010 -118 -828 34 -1599 452 -2305 137
-230 270 -408 448 -594 576 -604 1282 -953 2124 -1051 72 -8 154 -15 184 -15
l53 0 -6 78 c-40 513 -30 794 40 1112 61 279 211 644 352 855 152 229 386 487
602 664 199 164 319 293 442 476 246 367 323 791 226 1245 -26 124 -95 337
-111 342 -11 5 -532 -234 -550 -252 -5 -4 1 -81 13 -170 19 -135 22 -191 17
-329 -8 -245 -51 -394 -164 -563 -59 -89 -201 -231 -276 -276 -139 -83 -337
-151 -521 -178 -92 -14 -144 -15 -311 -8 -528 23 -768 -4 -1002 -116 -194 -92
-298 -190 -438 -413 -8 -13 -63 34 -320 274 -170 160 -316 301 -323 315 -7 13
-9 30 -5 38 9 16 880 953 1752 1886 504 538 598 644 622 695 54 117 62 342 20
535 -11 47 -17 87 -16 89 7 7 102 3 300 -13 519 -41 658 -39 844 9 121 32 206
74 270 131 59 53 115 129 108 147 -2 7 -51 32 -108 56 -458 193 -1038 287
-1548 250z"/>
<path d="M5387 6327 c-46 -115 -60 -185 -60 -297 0 -84 5 -120 26 -183 107
-330 419 -520 742 -452 83 18 235 88 235 109 0 17 -86 130 -196 256 -96 110
-275 288 -387 384 -89 76 -314 246 -327 246 -4 0 -19 -29 -33 -63z"/>
<path d="M3413 5076 c-88 -28 -150 -84 -200 -179 -25 -46 -28 -63 -28 -147 0
-83 3 -102 27 -150 37 -75 102 -141 174 -176 51 -25 70 -29 144 -29 73 1 93 5
138 28 105 55 171 133 197 234 33 128 9 235 -76 327 -39 43 -63 59 -119 80
-80 29 -184 34 -257 12z"/>
<path d="M6534 4997 c-81 -59 -166 -156 -207 -235 -55 -104 -71 -178 -70 -322
0 -111 3 -133 27 -195 108 -280 301 -427 579 -443 94 -5 99 -4 94 14 -10 32
-308 1075 -330 1152 -11 39 -23 72 -28 72 -4 0 -33 -19 -65 -43z"/>
<path d="M6730 3247 c-239 -72 -395 -232 -461 -473 -50 -181 5 -421 128 -566
49 -56 146 -139 194 -163 28 -15 29 -15 53 22 56 85 170 412 225 643 40 171
81 437 81 527 l0 33 -72 -1 c-45 0 -102 -9 -148 -22z"/>
</g>
</svg>
